<svg width="11" height="10" viewBox="0 0 11 10" fill="none" xmlns="http://www.w3.org/2000/svg">
<path d="M9.45853 4.30232H5.69888V0.542636C5.69888 0.371367 5.46631 0 5.0012 0C4.53609 0 4.30352 0.371388 4.30352 0.542636V4.30234H0.543855C0.372607 4.30232 0.0012207 4.53489 0.0012207 4.99998C0.0012207 5.46507 0.372607 5.69766 0.543855 5.69766H4.30354V9.45736C4.30354 9.62859 4.53609 10 5.00122 10C5.46635 10 5.6989 9.62859 5.6989 9.45736V5.69766H9.45859C9.62982 5.69766 10.0012 5.46511 10.0012 4.99998C10.0012 4.53485 9.62977 4.30232 9.45853 4.30232Z" fill="url(#paint0_linear)"/>
<defs>
<linearGradient id="paint0_linear" x1="5.00122" y1="0" x2="5.00122" y2="10" gradientUnits="userSpaceOnUse">
<stop stop-color="#4E3D95"/>
<stop offset="1" stop-color="#3A2E60"/>
</linearGradient>
</defs>
</svg>
